<svg width="40" height="40" viewBox="0 0 40 40" fill="none" xmlns="http://www.w3.org/2000/svg">
<rect width="40" height="40" rx="8" fill="#166983"/>
<path d="M11.9844 19.4844C11.9844 18.6875 12.6875 17.9844 13.4844 17.9844C14.3281 17.9844 14.9844 18.6875 14.9844 19.4844V23.5156C14.9844 24.3125 14.3281 25.0156 13.4844 25.0156C12.6875 25.0156 11.9844 24.3125 11.9844 23.5156V19.4844ZM17.9844 19.4844C17.9844 18.6875 18.6875 17.9844 19.4844 17.9844C20.3281 17.9844 20.9844 18.6875 20.9844 19.4844V23.5156C20.9844 24.3125 20.3281 25.0156 19.4844 25.0156C18.6875 25.0156 17.9844 24.3125 17.9844 23.5156V19.4844ZM11.5156 29.9844C10.6719 29.9844 10.0156 29.3281 10.0156 28.4844C10.0156 27.6875 10.6719 26.9844 11.5156 26.9844H27.5C28.3438 26.9844 29 27.6875 29 28.4844C29 29.3281 28.3438 29.9844 27.5 29.9844H11.5156ZM23.9844 19.4844C23.9844 18.6875 24.6875 17.9844 25.4844 17.9844C26.3281 17.9844 26.9844 18.6875 26.9844 19.4844V23.5156C26.9844 24.3125 26.3281 25.0156 25.4844 25.0156C24.6875 25.0156 23.9844 24.3125 23.9844 23.5156V19.4844ZM18.5469 9.5C19.1562 9.17188 19.8594 9.17188 20.4219 9.5L28.3438 13.6719C28.7188 13.8594 29 14.2812 29 14.75C29 15.4531 28.4375 16.0156 27.7812 16.0156H11.2344C10.5781 16.0156 10.0156 15.4531 10.0156 14.75C10.0156 14.2812 10.25 13.8594 10.6719 13.6719L18.5469 9.5Z" fill="white"/>
</svg>
