<svg width="40" height="40" viewBox="0 0 40 40" fill="none" xmlns="http://www.w3.org/2000/svg">
<rect width="40" height="40" rx="8" fill="#FF3D00"/>
<path d="M24.8281 25.1562L26.2812 23.7031L21.4062 18.8281L18.125 22.1094C17.75 22.5312 17.0938 22.5312 16.7188 22.1094L10.7188 16.1094C10.2969 15.7344 10.2969 15.0781 10.7188 14.7031C11.0938 14.3281 11.75 14.3281 12.125 14.7031L17.4219 20L20.7031 16.7188C21.0781 16.2969 21.7344 16.2969 22.1094 16.7188L27.6875 22.2969L29.1406 20.8438C29.4688 20.5625 29.9844 20.75 29.9844 21.2188V25.4844C29.9844 25.7656 29.75 26 29.4688 26H25.2031C24.7812 26 24.5469 25.4375 24.8281 25.1562Z" fill="white"/>
</svg>
