<svg width="40" height="40" viewBox="0 0 40 40" fill="none" xmlns="http://www.w3.org/2000/svg">
<rect width="40" height="40" rx="8" fill="#A5C757"/>
<path d="M24.8281 14.8438C24.5469 14.5625 24.7812 14 25.2031 14H29.5156C29.7969 14 29.9844 14.2344 29.9844 14.5156V18.7812C29.9844 19.25 29.4688 19.4375 29.1406 19.1562L27.6875 17.7031L22.1094 23.2812C21.7344 23.7031 21.0781 23.7031 20.7031 23.2812L17.4219 20L12.125 25.2969C11.75 25.6719 11.0938 25.6719 10.7188 25.2969C10.2969 24.9219 10.2969 24.2656 10.7188 23.8906L16.7188 17.8906C17.0938 17.4688 17.75 17.4688 18.125 17.8906L21.4062 21.1719L26.2812 16.2969L24.8281 14.8438Z" fill="white"/>
</svg>
