<svg width="22" height="18" viewBox="0 0 22 18" fill="none" xmlns="http://www.w3.org/2000/svg">
<path d="M3.51562 10.1719L9.5625 13.5C10.125 13.8281 10.875 13.8281 11.4375 13.5L17.4844 10.1719V12.9844C17.4844 13.7344 17.1094 14.3906 16.4531 14.7656L11.4375 17.4844C10.875 17.8125 10.125 17.8125 9.5625 17.4844L4.54688 14.7656C3.89062 14.3906 3.51562 13.7344 3.51562 12.9844V10.1719ZM9.5625 0.515625C10.125 0.1875 10.875 0.1875 11.4375 0.515625L21 5.71875C21.2812 5.90625 21.5156 6.23438 21.5156 6.60938V12.9844C21.5156 13.5469 21.0469 14.0156 20.4844 14.0156C19.9688 14.0156 19.5 13.5469 19.5 12.9844V7.07812L11.4375 11.4844C10.875 11.8125 10.125 11.8125 9.5625 11.4844L1.125 6.89062C0.421875 6.51562 0.421875 5.48438 1.125 5.10938L9.5625 0.515625Z" fill="#666666"/>
</svg>
