<svg width="40" height="40" viewBox="0 0 40 40" fill="none" xmlns="http://www.w3.org/2000/svg">
<rect width="40" height="40" rx="8" fill="#F5F9EC"/>
<path d="M31.0156 16.0156V26C31.0156 27.0781 30.0781 28.0156 29 28.0156H13.0156C12.4531 28.0156 11.9844 27.5469 11.9844 26.9844C11.9844 26.4688 12.4531 26 13.0156 26H29V16.0156C29 15.4531 29.4688 14.9844 29.9844 14.9844C30.5469 14.9844 31.0156 15.4531 31.0156 16.0156ZM11.9844 23.9844C10.3438 23.9844 8.98438 22.6719 8.98438 20.9844V14.9844C8.98438 13.3438 10.3438 11.9844 11.9844 11.9844H23.9844C25.6719 11.9844 26.9844 13.3438 26.9844 14.9844V22.0156C26.9844 23.0938 26.0938 23.9844 25.0156 23.9844H11.9844ZM14.9844 17.9844C14.9844 19.6719 16.3438 20.9844 17.9844 20.9844C19.6719 20.9844 20.9844 19.6719 20.9844 17.9844C20.9844 16.3438 19.6719 14.9844 17.9844 14.9844C16.3438 14.9844 14.9844 16.3438 14.9844 17.9844Z" fill="#7A9933"/>
</svg>
