<svg width="40" height="40" viewBox="0 0 40 40" fill="none" xmlns="http://www.w3.org/2000/svg">
<rect width="40" height="40" rx="8" fill="#F5F9EC"/>
<path d="M22.5781 10.5781L27.4062 15.4062C27.7812 15.7812 28.0156 16.2969 28.0156 16.8125V28.0156C28.0156 29.0938 27.0781 29.9844 26 29.9844H14C12.875 29.9844 11.9844 29.0938 11.9844 28.0156V11.9844C11.9844 10.9062 12.9219 10.0156 14 10.0156H21.1719C21.6875 10.0156 22.2031 10.2031 22.5781 10.5781ZM23 26C23.5625 26 23.9844 25.5312 23.9844 25.0156C23.9844 24.4531 23.5625 23.9844 23 23.9844H17C16.4375 23.9844 16.0156 24.4531 16.0156 25.0156C16.0156 25.5312 16.4375 26 17 26H23ZM23 22.0156C23.5625 22.0156 23.9844 21.5469 23.9844 20.9844C23.9844 20.4688 23.5625 20 23 20H17C16.4375 20 16.0156 20.4688 16.0156 20.9844C16.0156 21.5469 16.4375 22.0156 17 22.0156H23ZM20.9844 16.0156C20.9844 16.5312 21.4531 17 22.0156 17H26.5156L20.9844 11.5156V16.0156Z" fill="#7A9933"/>
</svg>
