<svg width="40" height="40" viewBox="0 0 40 40" fill="none" xmlns="http://www.w3.org/2000/svg">
<rect width="40" height="40" rx="8" fill="#F5F9EC"/>
<path d="M25.0156 10.0156C26.0938 10.0156 26.9844 10.9062 26.9844 11.9844V14C26.9844 15.0781 26.0938 16.0156 25.0156 16.0156H14.9844C13.9062 16.0156 13.0156 15.0781 13.0156 14V11.9844C13.0156 10.9062 13.9062 10.0156 14.9844 10.0156H25.0156ZM24.5 14C24.7812 14 25.0156 13.7656 25.0156 13.4844V12.5C25.0156 12.2188 24.7812 11.9844 24.5 11.9844H15.5C15.2188 11.9844 14.9844 12.2188 14.9844 12.5V13.4844C14.9844 13.7656 15.2188 14 15.5 14H24.5ZM28.0156 29.9844C29.0938 29.9844 29.9844 29.0938 29.9844 28.0156V26.9844H10.0156V28.0156C10.0156 29.0938 10.9062 29.9844 11.9844 29.9844H28.0156ZM26.5156 18.1719L29.9844 26H10.0156L13.4844 18.1719C13.8125 17.4688 14.5156 17 15.3125 17H24.6875C25.4844 17 26.1875 17.4688 26.5156 18.1719ZM17.5156 23.9844C17.7969 23.9844 17.9844 23.7969 17.9844 23.5156C17.9844 23.2344 17.7969 23 17.5156 23H16.4844C16.2031 23 16.0156 23.2344 16.0156 23.5156C16.0156 23.7969 16.2031 23.9844 16.4844 23.9844H17.5156ZM17.5156 22.0156C17.7969 22.0156 17.9844 21.7812 17.9844 21.5C17.9844 21.2188 17.7969 20.9844 17.5156 20.9844H16.4844C16.2031 20.9844 16.0156 21.2188 16.0156 21.5C16.0156 21.7812 16.2031 22.0156 16.4844 22.0156H17.5156ZM17.5156 20C17.7969 20 17.9844 19.7656 17.9844 19.4844C17.9844 19.2031 17.7969 19.0156 17.5156 19.0156H16.4844C16.2031 19.0156 16.0156 19.2031 16.0156 19.4844C16.0156 19.7656 16.2031 20 16.4844 20H17.5156ZM20.5156 23.9844C20.7969 23.9844 20.9844 23.7969 20.9844 23.5156C20.9844 23.2344 20.7969 23 20.5156 23H19.4844C19.2031 23 19.0156 23.2344 19.0156 23.5156C19.0156 23.7969 19.2031 23.9844 19.4844 23.9844H20.5156ZM20.5156 22.0156C20.7969 22.0156 20.9844 21.7812 20.9844 21.5C20.9844 21.2188 20.7969 20.9844 20.5156 20.9844H19.4844C19.2031 20.9844 19.0156 21.2188 19.0156 21.5C19.0156 21.7812 19.2031 22.0156 19.4844 22.0156H20.5156ZM20.5156 20C20.7969 20 20.9844 19.7656 20.9844 19.4844C20.9844 19.2031 20.7969 19.0156 20.5156 19.0156H19.4844C19.2031 19.0156 19.0156 19.2031 19.0156 19.4844C19.0156 19.7656 19.2031 20 19.4844 20H20.5156ZM23.5156 23.9844C23.7969 23.9844 23.9844 23.7969 23.9844 23.5156C23.9844 23.2344 23.7969 23 23.5156 23H22.4844C22.2031 23 22.0156 23.2344 22.0156 23.5156C22.0156 23.7969 22.2031 23.9844 22.4844 23.9844H23.5156ZM23.5156 22.0156C23.7969 22.0156 23.9844 21.7812 23.9844 21.5C23.9844 21.2188 23.7969 20.9844 23.5156 20.9844H22.4844C22.2031 20.9844 22.0156 21.2188 22.0156 21.5C22.0156 21.7812 22.2031 22.0156 22.4844 22.0156H23.5156ZM23.5156 20C23.7969 20 23.9844 19.7656 23.9844 19.4844C23.9844 19.2031 23.7969 19.0156 23.5156 19.0156H22.4844C22.2031 19.0156 22.0156 19.2031 22.0156 19.4844C22.0156 19.7656 22.2031 20 22.4844 20H23.5156Z" fill="#7A9933"/>
</svg>
